<svg version="1.1" viewBox="0.0 0.0 960.0 540.0" fill="none" stroke="none" stroke-linecap="square" stroke-miterlimit="10" xmlns:xlink="http://www.w3.org/1999/xlink" xmlns="http://www.w3.org/2000/svg"><clipPath id="g2ed09c6ee67_0_29.0"><path d="m0 0l960.0 0l0 540.0l-960.0 0l0 -540.0z" clip-rule="nonzero"/></clipPath><g clip-path="url(#g2ed09c6ee67_0_29.0)"><path fill="#ffffff" d="m0 0l960.0 0l0 540.0l-960.0 0z" fill-rule="evenodd"/><path fill="#000000" fill-opacity="0.0" d="m169.8118 425.18372c-12.809311 0 -23.193298 -10.383972 -23.193298 -23.193298l0 -92.77875c0 -12.809296 -10.384003 -23.193298 -23.193306 -23.193298c12.809303 0 23.193306 -10.384003 23.193306 -23.193298l0 -92.77876l0 0c0 -12.809296 10.383987 -23.193298 23.193298 -23.193298l661.4315 0c6.151245 0 12.050537 2.443573 16.400146 6.793167c4.3495483 4.349579 6.793152 10.248886 6.793152 16.400131l0 92.77876c0 12.809296 10.383972 23.193298 23.193298 23.193298c-12.809326 0 -23.193298 10.384003 -23.193298 23.193298l0 92.77875c0 12.809326 -10.384033 23.193298 -23.193298 23.193298z" fill-rule="evenodd"/><path fill="#000000" fill-opacity="0.0" d="m169.8118 425.18372c-12.809311 0 -23.193298 -10.383972 -23.193298 -23.193298l0 -92.77875c0 -12.809296 -10.384003 -23.193298 -23.193306 -23.193298c12.809303 0 23.193306 -10.384003 23.193306 -23.193298l0 -92.77876l0 0c0 -12.809296 10.383987 -23.193298 23.193298 -23.193298m661.4315 0c6.151245 0 12.050537 2.443573 16.400146 6.793167c4.3495483 4.349579 6.793152 10.248886 6.793152 16.400131l0 92.77876c0 12.809296 10.383972 23.193298 23.193298 23.193298c-12.809326 0 -23.193298 10.384003 -23.193298 23.193298l0 92.77875c0 12.809326 -10.384033 23.193298 -23.193298 23.193298" fill-rule="evenodd"/><path stroke="#595959" stroke-width="1.0" stroke-linejoin="round" stroke-linecap="butt" d="m169.8118 425.18372c-12.809311 0 -23.193298 -10.383972 -23.193298 -23.193298l0 -92.77875c0 -12.809296 -10.384003 -23.193298 -23.193306 -23.193298c12.809303 0 23.193306 -10.384003 23.193306 -23.193298l0 -92.77876l0 0c0 -12.809296 10.383987 -23.193298 23.193298 -23.193298m661.4315 0c6.151245 0 12.050537 2.443573 16.400146 6.793167c4.3495483 4.349579 6.793152 10.248886 6.793152 16.400131l0 92.77876c0 12.809296 10.383972 23.193298 23.193298 23.193298c-12.809326 0 -23.193298 10.384003 -23.193298 23.193298l0 92.77875c0 12.809326 -10.384033 23.193298 -23.193298 23.193298" fill-rule="evenodd"/><path fill="#000000" fill-opacity="0.0" d="m345.5261 395.18634c-10.124817 0 -18.332611 -8.207764 -18.332611 -18.33258l0 -73.33481c0 -10.124817 -8.207764 -18.332611 -18.33258 -18.332611l0 0c10.124817 0 18.33258 -8.207764 18.33258 -18.33258l0 -73.33481l0 0c0 -10.124817 8.207794 -18.332596 18.332611 -18.332596l467.07907 0c4.8620605 0 9.525024 1.9314575 12.963074 5.3694916c3.4380493 3.438034 5.369507 8.100998 5.369507 12.963104l0 73.33481c0 10.124817 8.207764 18.33258 18.33258 18.33258c-10.124817 0 -18.33258 8.207794 -18.33258 18.332611l0 73.33481c0 10.124817 -8.207764 18.33258 -18.33258 18.33258z" fill-rule="evenodd"/><path fill="#000000" fill-opacity="0.0" d="m345.5261 395.18634c-10.124817 0 -18.332611 -8.207764 -18.332611 -18.33258l0 -73.33481c0 -10.124817 -8.207764 -18.332611 -18.33258 -18.332611l0 0c10.124817 0 18.33258 -8.207764 18.33258 -18.33258l0 -73.33481l0 0c0 -10.124817 8.207794 -18.332596 18.332611 -18.332596m467.07907 0c4.8620605 0 9.525024 1.9314575 12.963074 5.3694916c3.4380493 3.438034 5.369507 8.100998 5.369507 12.963104l0 73.33481c0 10.124817 8.207764 18.33258 18.33258 18.33258c-10.124817 0 -18.33258 8.207794 -18.33258 18.332611l0 73.33481c0 10.124817 -8.207764 18.33258 -18.33258 18.33258" fill-rule="evenodd"/><path stroke="#595959" stroke-width="1.0" stroke-linejoin="round" stroke-linecap="butt" d="m345.5261 395.18634c-10.124817 0 -18.332611 -8.207764 -18.332611 -18.33258l0 -73.33481c0 -10.124817 -8.207764 -18.332611 -18.33258 -18.332611l0 0c10.124817 0 18.33258 -8.207764 18.33258 -18.33258l0 -73.33481l0 0c0 -10.124817 8.207794 -18.332596 18.332611 -18.332596m467.07907 0c4.8620605 0 9.525024 1.9314575 12.963074 5.3694916c3.4380493 3.438034 5.369507 8.100998 5.369507 12.963104l0 73.33481c0 10.124817 8.207764 18.33258 18.33258 18.33258c-10.124817 0 -18.33258 8.207794 -18.33258 18.332611l0 73.33481c0 10.124817 -8.207764 18.33258 -18.33258 18.33258" fill-rule="evenodd"/><path fill="#000000" fill-opacity="0.0" d="m427.12213 378.50656c-8.3984375 0 -15.206726 -6.8082886 -15.206726 -15.206726l0 -60.830627c0 -8.3984375 -6.8082886 -15.206726 -15.206757 -15.206726c8.398468 0 15.206757 -6.808319 15.206757 -15.206757l0 -60.830612l0 0c0 -8.398453 6.8082886 -15.206741 15.206726 -15.206741l373.37775 0c4.033081 0 7.901001 1.6021423 10.752808 4.453949c2.8518066 2.851822 4.4539795 6.7197113 4.4539795 10.752792l0 60.830612c0 8.3984375 6.8082886 15.206757 15.206726 15.206757c-8.3984375 0 -15.206726 6.8082886 -15.206726 15.206726l0 60.830627c0 8.3984375 -6.8082886 15.206726 -15.206787 15.206726z" fill-rule="evenodd"/><path fill="#000000" fill-opacity="0.0" d="m427.12213 378.50656c-8.3984375 0 -15.206726 -6.8082886 -15.206726 -15.206726l0 -60.830627c0 -8.3984375 -6.8082886 -15.206726 -15.206757 -15.206726c8.398468 0 15.206757 -6.808319 15.206757 -15.206757l0 -60.830612l0 0c0 -8.398453 6.8082886 -15.206741 15.206726 -15.206741m373.37775 0c4.033081 0 7.901001 1.6021423 10.752808 4.453949c2.8518066 2.851822 4.4539795 6.7197113 4.4539795 10.752792l0 60.830612c0 8.3984375 6.8082886 15.206757 15.206726 15.206757c-8.3984375 0 -15.206726 6.8082886 -15.206726 15.206726l0 60.830627c0 8.3984375 -6.8082886 15.206726 -15.206787 15.206726" fill-rule="evenodd"/><path stroke="#595959" stroke-width="1.0" stroke-linejoin="round" stroke-linecap="butt" d="m427.12213 378.50656c-8.3984375 0 -15.206726 -6.8082886 -15.206726 -15.206726l0 -60.830627c0 -8.3984375 -6.8082886 -15.206726 -15.206757 -15.206726c8.398468 0 15.206757 -6.808319 15.206757 -15.206757l0 -60.830612l0 0c0 -8.398453 6.8082886 -15.206741 15.206726 -15.206741m373.37775 0c4.033081 0 7.901001 1.6021423 10.752808 4.453949c2.8518066 2.851822 4.4539795 6.7197113 4.4539795 10.752792l0 60.830612c0 8.3984375 6.8082886 15.206757 15.206726 15.206757c-8.3984375 0 -15.206726 6.8082886 -15.206726 15.206726l0 60.830627c0 8.3984375 -6.8082886 15.206726 -15.206787 15.206726" fill-rule="evenodd"/><path fill="#000000" fill-opacity="0.0" d="m608.5659 368.52756c-7.17218 0 -12.986389 -5.8141785 -12.986389 -12.986359l0 -51.948547c0 -7.1721497 -5.814209 -12.986359 -12.986328 -12.986359c7.172119 0 12.986328 -5.8141785 12.986328 -12.986359l0 -51.948532l0 0c0 -7.172165 5.814209 -12.986359 12.986389 -12.986359l178.88916 0c3.4442139 0 6.7473755 1.3681946 9.1828 3.8036194c2.4353638 2.4354095 3.8035889 5.7385406 3.8035889 9.182739l0 51.948532c0 7.17218 5.814209 12.986359 12.986328 12.986359c-7.172119 0 -12.986328 5.814209 -12.986328 12.986359l0 51.948547c0 7.17218 -5.814209 12.986359 -12.986389 12.986359z" fill-rule="evenodd"/><path fill="#000000" fill-opacity="0.0" d="m608.5659 368.52756c-7.17218 0 -12.986389 -5.8141785 -12.986389 -12.986359l0 -51.948547c0 -7.1721497 -5.814209 -12.986359 -12.986328 -12.986359c7.172119 0 12.986328 -5.8141785 12.986328 -12.986359l0 -51.948532l0 0c0 -7.172165 5.814209 -12.986359 12.986389 -12.986359m178.88916 0c3.4442139 0 6.7473755 1.3681946 9.1828 3.8036194c2.4353638 2.4354095 3.8035889 5.7385406 3.8035889 9.182739l0 51.948532c0 7.17218 5.814209 12.986359 12.986328 12.986359c-7.172119 0 -12.986328 5.814209 -12.986328 12.986359l0 51.948547c0 7.17218 -5.814209 12.986359 -12.986389 12.986359" fill-rule="evenodd"/><path stroke="#595959" stroke-width="1.0" stroke-linejoin="round" stroke-linecap="butt" d="m608.5659 368.52756c-7.17218 0 -12.986389 -5.8141785 -12.986389 -12.986359l0 -51.948547c0 -7.1721497 -5.814209 -12.986359 -12.986328 -12.986359c7.172119 0 12.986328 -5.8141785 12.986328 -12.986359l0 -51.948532l0 0c0 -7.172165 5.814209 -12.986359 12.986389 -12.986359m178.88916 0c3.4442139 0 6.7473755 1.3681946 9.1828 3.8036194c2.4353638 2.4354095 3.8035889 5.7385406 3.8035889 9.182739l0 51.948532c0 7.17218 5.814209 12.986359 12.986328 12.986359c-7.172119 0 -12.986328 5.814209 -12.986328 12.986359l0 51.948547c0 7.17218 -5.814209 12.986359 -12.986389 12.986359" fill-rule="evenodd"/><path fill="#000000" fill-opacity="0.0" d="m685.6448 355.17584c-6.135742 0 -11.109802 -4.973999 -11.109802 -11.109772l0 -44.441833c0 -6.1357727 -4.973999 -11.109802 -11.109802 -11.109802c6.135803 0 11.109802 -4.9740295 11.109802 -11.109802l0 -44.44182l0 0c0 -6.1357727 4.97406 -11.109802 11.109802 -11.109802l90.55298 0c2.9464722 0 5.772278 1.1705017 7.855774 3.2539825c2.083496 2.083496 3.2540283 4.909317 3.2540283 7.8558197l0 44.44182c0 6.1357727 4.973999 11.109802 11.109741 11.109802c-6.135742 0 -11.109741 4.9740295 -11.109741 11.109802l0 44.441833c0 6.1357727 -4.97406 11.109772 -11.109802 11.109772z" fill-rule="evenodd"/><path fill="#000000" fill-opacity="0.0" d="m685.6448 355.17584c-6.135742 0 -11.109802 -4.973999 -11.109802 -11.109772l0 -44.441833c0 -6.1357727 -4.973999 -11.109802 -11.109802 -11.109802c6.135803 0 11.109802 -4.9740295 11.109802 -11.109802l0 -44.44182l0 0c0 -6.1357727 4.97406 -11.109802 11.109802 -11.109802m90.55298 0c2.9464722 0 5.772278 1.1705017 7.855774 3.2539825c2.083496 2.083496 3.2540283 4.909317 3.2540283 7.8558197l0 44.44182c0 6.1357727 4.973999 11.109802 11.109741 11.109802c-6.135742 0 -11.109741 4.9740295 -11.109741 11.109802l0 44.441833c0 6.1357727 -4.97406 11.109772 -11.109802 11.109772" fill-rule="evenodd"/><path stroke="#595959" stroke-width="1.0" stroke-linejoin="round" stroke-linecap="butt" d="m685.6448 355.17584c-6.135742 0 -11.109802 -4.973999 -11.109802 -11.109772l0 -44.441833c0 -6.1357727 -4.973999 -11.109802 -11.109802 -11.109802c6.135803 0 11.109802 -4.9740295 11.109802 -11.109802l0 -44.44182l0 0c0 -6.1357727 4.97406 -11.109802 11.109802 -11.109802m90.55298 0c2.9464722 0 5.772278 1.1705017 7.855774 3.2539825c2.083496 2.083496 3.2540283 4.909317 3.2540283 7.8558197l0 44.44182c0 6.1357727 4.973999 11.109802 11.109741 11.109802c-6.135742 0 -11.109741 4.9740295 -11.109741 11.109802l0 44.441833c0 6.1357727 -4.97406 11.109772 -11.109802 11.109772" fill-rule="evenodd"/><path fill="#000000" fill-opacity="0.0" d="m751.75854 265.87933l0 0c0 -2.2236633 1.8026123 -4.026306 4.026306 -4.026306l16.104858 0l0 0c1.06781 0 2.091919 0.42419434 2.847046 1.1792603c0.7550659 0.75509644 1.1792603 1.7792053 1.1792603 2.847046l0 44.57727c0 2.2236938 -1.8026733 4.0263367 -4.026306 4.0263367l-16.104858 0c-2.2236938 0 -4.026306 -1.8026428 -4.026306 -4.0263367z" fill-rule="evenodd"/><path fill="#000000" fill-opacity="0.0" d="m755.78485 314.48294c-2.2236938 0 -4.026306 -1.8026428 -4.026306 -4.0263367l0 -44.57727l0 0c0 -2.2236633 1.8026123 -4.026306 4.026306 -4.026306m16.104858 0l0 0c1.06781 0 2.091919 0.42419434 2.847046 1.1792603c0.7550659 0.75509644 1.1792603 1.7792053 1.1792603 2.847046l0 44.57727c0 2.2236938 -1.8026733 4.0263367 -4.026306 4.0263367" fill-rule="evenodd"/><path stroke="#595959" stroke-width="1.0" stroke-linejoin="round" stroke-linecap="butt" d="m755.78485 314.48294c-2.2236938 0 -4.026306 -1.8026428 -4.026306 -4.0263367l0 -44.57727l0 0c0 -2.2236633 1.8026123 -4.026306 4.026306 -4.026306m16.104858 0l0 0c1.06781 0 2.091919 0.42419434 2.847046 1.1792603c0.7550659 0.75509644 1.1792603 1.7792053 1.1792603 2.847046l0 44.57727c0 2.2236938 -1.8026733 4.0263367 -4.026306 4.0263367" fill-rule="evenodd"/><path fill="#eeeeee" d="m731.8456 286.25983l2.3728638 -2.8729553l3.7973022 3.1363525l3.7973022 -3.1363525l2.3728638 2.8729553l-3.2445679 2.6798096l3.2445679 2.6798096l-2.3728638 2.8729248l-3.7973022 -3.1363525l-3.7973022 3.1363525l-2.3728638 -2.8729248l3.2445679 -2.6798096z" fill-rule="evenodd"/><path stroke="#595959" stroke-width="1.0" stroke-linejoin="round" stroke-linecap="butt" d="m731.8456 286.25983l2.3728638 -2.8729553l3.7973022 3.1363525l3.7973022 -3.1363525l2.3728638 2.8729553l-3.2445679 2.6798096l3.2445679 2.6798096l-2.3728638 2.8729248l-3.7973022 -3.1363525l-3.7973022 3.1363525l-2.3728638 -2.8729248l3.2445679 -2.6798096z" fill-rule="evenodd"/><path fill="#000000" fill-opacity="0.0" d="m680.71655 242.44109l0 0c0 -4.0066833 3.2480469 -7.25473 7.2546997 -7.25473l29.018127 0l0 0c1.9240723 0 3.7693481 0.764328 5.129822 2.1248627c1.3605347 1.3605194 2.124878 3.2057953 2.124878 5.1298676l0 88.82912c0 4.0066833 -3.2480469 7.25473 -7.2546997 7.25473l-29.018127 0c-4.006653 0 -7.2546997 -3.2480469 -7.2546997 -7.25473z" fill-rule="evenodd"/><path fill="#000000" fill-opacity="0.0" d="m687.97125 338.52493c-4.006653 0 -7.2546997 -3.2480469 -7.2546997 -7.25473l0 -88.82912l0 0c0 -4.0066833 3.2480469 -7.25473 7.2546997 -7.25473m29.018127 0l0 0c1.9240723 0 3.7693481 0.764328 5.129822 2.1248627c1.3605347 1.3605194 2.124878 3.2057953 2.124878 5.1298676l0 88.82912c0 4.0066833 -3.2480469 7.25473 -7.2546997 7.25473" fill-rule="evenodd"/><path stroke="#595959" stroke-width="1.0" stroke-linejoin="round" stroke-linecap="butt" d="m687.97125 338.52493c-4.006653 0 -7.2546997 -3.2480469 -7.2546997 -7.25473l0 -88.82912l0 0c0 -4.0066833 3.2480469 -7.25473 7.2546997 -7.25473m29.018127 0l0 0c1.9240723 0 3.7693481 0.764328 5.129822 2.1248627c1.3605347 1.3605194 2.124878 3.2057953 2.124878 5.1298676l0 88.82912c0 4.0066833 -3.2480469 7.25473 -7.2546997 7.25473" fill-rule="evenodd"/><path fill="#eeeeee" d="m639.58563 286.4049l3.7457886 0l0 -5.285034l3.526123 0l0 5.285034l3.7457886 0l0 3.5261536l-3.7457886 0l0 5.2850037l-3.526123 0l0 -5.2850037l-3.7457886 0z" fill-rule="evenodd"/><path stroke="#595959" stroke-width="1.0" stroke-linejoin="round" stroke-linecap="butt" d="m639.58563 286.4049l3.7457886 0l0 -5.285034l3.526123 0l0 5.285034l3.7457886 0l0 3.5261536l-3.7457886 0l0 5.2850037l-3.526123 0l0 -5.2850037l-3.7457886 0z" fill-rule="evenodd"/><path fill="#000000" fill-opacity="0.0" d="m609.27295 239.21268l0 0c0 -2.2236786 1.8026733 -4.0263214 4.026367 -4.0263214l16.104797 0l0 0c1.0678711 0 2.09198 0.42419434 2.847046 1.1792755c0.7550659 0.7550812 1.1792603 1.7792053 1.1792603 2.847046l0 95.28592c0 2.2236938 -1.8026123 4.0263367 -4.026306 4.0263367l-16.104797 0c-2.2236938 0 -4.026367 -1.8026428 -4.026367 -4.0263367z" fill-rule="evenodd"/><path fill="#000000" fill-opacity="0.0" d="m613.2993 338.52493c-2.2236938 0 -4.026367 -1.8026428 -4.026367 -4.0263367l0 -95.28592l0 0c0 -2.2236786 1.8026733 -4.0263214 4.026367 -4.0263214m16.104797 0l0 0c1.0678711 0 2.09198 0.42419434 2.847046 1.1792755c0.7550659 0.7550812 1.1792603 1.7792053 1.1792603 2.847046l0 95.28592c0 2.2236938 -1.8026123 4.0263367 -4.026306 4.0263367" fill-rule="evenodd"/><path stroke="#595959" stroke-width="1.0" stroke-linejoin="round" stroke-linecap="butt" d="m613.2993 338.52493c-2.2236938 0 -4.026367 -1.8026428 -4.026367 -4.0263367l0 -95.28592l0 0c0 -2.2236786 1.8026733 -4.0263214 4.026367 -4.0263214m16.104797 0l0 0c1.0678711 0 2.09198 0.42419434 2.847046 1.1792755c0.7550659 0.7550812 1.1792603 1.7792053 1.1792603 2.847046l0 95.28592c0 2.2236938 -1.8026123 4.0263367 -4.026306 4.0263367" fill-rule="evenodd"/><path fill="#eeeeee" d="m550.09314 287.2176l3.1900635 -3.190033l3.388733 3.3887024l3.3886719 -3.3887024l3.1900635 3.190033l-3.388733 3.3887024l3.388733 3.3887024l-3.1900635 3.1900635l-3.3886719 -3.388733l-3.388733 3.388733l-3.1900635 -3.1900635l3.388733 -3.3887024z" fill-rule="evenodd"/><path stroke="#595959" stroke-width="1.0" stroke-linejoin="round" stroke-linecap="butt" d="m550.09314 287.2176l3.1900635 -3.190033l3.388733 3.3887024l3.3886719 -3.3887024l3.1900635 3.190033l-3.388733 3.3887024l3.388733 3.3887024l-3.1900635 3.1900635l-3.3886719 -3.388733l-3.388733 3.388733l-3.1900635 -3.1900635l3.388733 -3.3887024z" fill-rule="evenodd"/><path fill="#000000" fill-opacity="0.0" d="m418.0105 252.40979l0 0c0 -9.512238 7.711212 -17.223434 17.22345 -17.223434l89.71057 0c4.567932 0 8.9487915 1.8146057 12.178833 5.044632c3.2300415 3.230011 5.0446167 7.6108704 5.0446167 12.1788025l0 68.89169c0 9.512268 -7.7111816 17.22345 -17.22345 17.22345l-89.71057 0c-9.512238 0 -17.22345 -7.7111816 -17.22345 -17.22345z" fill-rule="evenodd"/><path fill="#000000" fill-opacity="0.0" d="m435.23395 338.52493c-9.512238 0 -17.22345 -7.7111816 -17.22345 -17.22345l0 -68.89169l0 0c0 -9.512238 7.711212 -17.223434 17.22345 -17.223434m89.71057 0c4.567932 0 8.9487915 1.8146057 12.178833 5.044632c3.2300415 3.230011 5.0446167 7.6108704 5.0446167 12.1788025l0 68.89169c0 9.512268 -7.7111816 17.22345 -17.22345 17.22345" fill-rule="evenodd"/><path stroke="#595959" stroke-width="1.0" stroke-linejoin="round" stroke-linecap="butt" d="m435.23395 338.52493c-9.512238 0 -17.22345 -7.7111816 -17.22345 -17.22345l0 -68.89169l0 0c0 -9.512238 7.711212 -17.223434 17.22345 -17.223434m89.71057 0c4.567932 0 8.9487915 1.8146057 12.178833 5.044632c3.2300415 3.230011 5.0446167 7.6108704 5.0446167 12.1788025l0 68.89169c0 9.512268 -7.7111816 17.22345 -17.22345 17.22345" fill-rule="evenodd"/><path fill="#eeeeee" d="m378.9544 285.792l4.038391 0l0 -3.1240845l2.940918 0l0 3.1240845l4.038391 0l0 2.9409485l-4.038391 0l0 3.1240845l-2.940918 0l0 -3.1240845l-4.038391 0z" fill-rule="evenodd"/><path stroke="#595959" stroke-width="1.0" stroke-linejoin="round" stroke-linecap="butt" d="m378.9544 285.792l4.038391 0l0 -3.1240845l2.940918 0l0 3.1240845l4.038391 0l0 2.9409485l-4.038391 0l0 3.1240845l-2.940918 0l0 -3.1240845l-4.038391 0z" fill-rule="evenodd"/><path fill="#000000" fill-opacity="0.0" d="m343.2139 239.91086l0 0c0 -2.6092682 2.1152344 -4.7245026 4.724518 -4.7245026l18.89746 0l0 0c1.2529907 0 2.454712 0.49775696 3.3407288 1.3837738c0.88601685 0.88601685 1.3837585 2.0877075 1.3837585 3.3407288l0 93.88959c0 2.609253 -2.1152344 4.7244873 -4.7244873 4.7244873l-18.89746 0c-2.6092834 0 -4.724518 -2.1152344 -4.724518 -4.7244873z" fill-rule="evenodd"/><path fill="#000000" fill-opacity="0.0" d="m347.93842 338.52493c-2.6092834 0 -4.724518 -2.1152344 -4.724518 -4.7244873l0 -93.88959l0 0c0 -2.6092682 2.1152344 -4.7245026 4.724518 -4.7245026m18.89746 0l0 0c1.2529907 0 2.454712 0.49775696 3.3407288 1.3837738c0.88601685 0.88601685 1.3837585 2.0877075 1.3837585 3.3407288l0 93.88959c0 2.609253 -2.1152344 4.7244873 -4.7244873 4.7244873" fill-rule="evenodd"/><path stroke="#595959" stroke-width="1.0" stroke-linejoin="round" stroke-linecap="butt" d="m347.93842 338.52493c-2.6092834 0 -4.724518 -2.1152344 -4.724518 -4.7244873l0 -93.88959l0 0c0 -2.6092682 2.1152344 -4.7245026 4.724518 -4.7245026m18.89746 0l0 0c1.2529907 0 2.454712 0.49775696 3.3407288 1.3837738c0.88601685 0.88601685 1.3837585 2.0877075 1.3837585 3.3407288l0 93.88959c0 2.609253 -2.1152344 4.7244873 -4.7244873 4.7244873" fill-rule="evenodd"/><path fill="#000000" fill-opacity="0.0" d="m149.25984 276.0211l0 0c0 -2.5310059 2.051773 -4.5827637 4.5827637 -4.5827637l106.67699 0c1.2154236 0 2.381073 0.4828186 3.240509 1.3422546c0.85943604 0.85943604 1.3422546 2.0250854 1.3422546 3.240509l0 18.330536c0 2.5309753 -2.0517578 4.5827637 -4.5827637 4.5827637l-106.67699 0c-2.5309906 0 -4.5827637 -2.0517883 -4.5827637 -4.5827637z" fill-rule="evenodd"/><path fill="#000000" fill-opacity="0.0" d="m153.8426 298.9344c-2.5309906 0 -4.5827637 -2.0517883 -4.5827637 -4.5827637l0 -18.330536l0 0c0 -2.5310059 2.051773 -4.5827637 4.5827637 -4.5827637m106.67699 0c1.2154236 0 2.381073 0.4828186 3.240509 1.3422546c0.85943604 0.85943604 1.3422546 2.0250854 1.3422546 3.240509l0 18.330536c0 2.5309753 -2.0517578 4.5827637 -4.5827637 4.5827637" fill-rule="evenodd"/><path stroke="#595959" stroke-width="1.0" stroke-linejoin="round" stroke-linecap="butt" d="m153.8426 298.9344c-2.5309906 0 -4.5827637 -2.0517883 -4.5827637 -4.5827637l0 -18.330536l0 0c0 -2.5310059 2.051773 -4.5827637 4.5827637 -4.5827637m106.67699 0c1.2154236 0 2.381073 0.4828186 3.240509 1.3422546c0.85943604 0.85943604 1.3422546 2.0250854 1.3422546 3.240509l0 18.330536c0 2.5309753 -2.0517578 4.5827637 -4.5827637 4.5827637" fill-rule="evenodd"/><path fill="#eeeeee" d="m276.01355 283.76114l2.3728943 -2.8729553l3.7972717 3.1363525l3.7973022 -3.1363525l2.3728638 2.8729553l-3.2445374 2.6798096l3.2445374 2.6798096l-2.3728638 2.8729248l-3.7973022 -3.1363525l-3.7972717 3.1363525l-2.3728943 -2.8729248l3.2445679 -2.6798096z" fill-rule="evenodd"/><path stroke="#595959" stroke-width="1.0" stroke-linejoin="round" stroke-linecap="butt" d="m276.01355 283.76114l2.3728943 -2.8729553l3.7972717 3.1363525l3.7973022 -3.1363525l2.3728638 2.8729553l-3.2445374 2.6798096l3.2445374 2.6798096l-2.3728638 2.8729248l-3.7973022 -3.1363525l-3.7972717 3.1363525l-2.3728943 -2.8729248l3.2445679 -2.6798096z" fill-rule="evenodd"/><path fill="#eeeeee" d="m92.49508 284.2553l3.745781 0l0 -5.285034l3.5261536 0l0 5.285034l3.745781 0l0 3.526123l-3.745781 0l0 5.285034l-3.5261536 0l0 -5.285034l-3.745781 0z" fill-rule="evenodd"/><path stroke="#595959" stroke-width="1.0" stroke-linejoin="round" stroke-linecap="butt" d="m92.49508 284.2553l3.745781 0l0 -5.285034l3.5261536 0l0 5.285034l3.745781 0l0 3.526123l-3.745781 0l0 5.285034l-3.5261536 0l0 -5.285034l-3.745781 0z" fill-rule="evenodd"/><path fill="#000000" fill-opacity="0.0" d="m48.425198 279.62473l0 0c0 -1.7655945 1.4313049 -3.1968994 3.1969147 -3.1968994l17.763653 0c0.8478699 0 1.6610184 0.3368225 2.260559 0.93634033c0.5995331 0.59954834 0.9363556 1.4126892 0.9363556 2.260559l0 12.7872925c0 1.7655945 -1.4313126 3.1968994 -3.1969147 3.1968994l-17.763653 0l0 0c-1.7656097 0 -3.1969147 -1.4313049 -3.1969147 -3.1968994z" fill-rule="evenodd"/><path fill="#000000" fill-opacity="0.0" d="m51.622112 295.60892l0 0c-1.7656097 0 -3.1969147 -1.4313049 -3.1969147 -3.1968994l0 -12.7872925l0 0c0 -1.7655945 1.4313049 -3.1968994 3.1969147 -3.1968994m17.763653 0c0.8478699 0 1.6610184 0.3368225 2.260559 0.93634033c0.5995331 0.59954834 0.9363556 1.4126892 0.9363556 2.260559l0 12.7872925c0 1.7655945 -1.4313126 3.1968994 -3.1969147 3.1968994" fill-rule="evenodd"/><path stroke="#595959" stroke-width="1.0" stroke-linejoin="round" stroke-linecap="butt" d="m51.622112 295.60892l0 0c-1.7656097 0 -3.1969147 -1.4313049 -3.1969147 -3.1968994l0 -12.7872925l0 0c0 -1.7655945 1.4313049 -3.1968994 3.1969147 -3.1968994m17.763653 0c0.8478699 0 1.6610184 0.3368225 2.260559 0.93634033c0.5995331 0.59954834 0.9363556 1.4126892 0.9363556 2.260559l0 12.7872925c0 1.7655945 -1.4313126 3.1968994 -3.1969147 3.1968994" fill-rule="evenodd"/><path fill="#000000" fill-opacity="0.0" d="m561.54596 266.39896l28.346436 0l0 40.91339l-28.346436 0z" fill-rule="evenodd"/><path fill="#595959" d="m572.6397 298.43896l0 -10.8125l-1.875 0l0 -1.640625l1.875 0l0 -1.3125q0 -1.265625 0.21875 -1.875q0.296875 -0.8125 1.0625 -1.3125q0.78125 -0.515625 2.15625 -0.515625q0.890625 0 1.96875 0.203125l-0.3125 1.84375q-0.65625 -0.125 -1.25 -0.125q-0.953125 0 -1.359375 0.421875q-0.390625 0.40625 -0.390625 1.53125l0 1.140625l2.421875 0l0 1.640625l-2.421875 0l0 10.8125l-2.09375 0z" fill-rule="nonzero"/><path fill="#000000" fill-opacity="0.0" d="m287.38715 261.85303l33.543304 0l0 40.91339l-33.543304 0z" fill-rule="evenodd"/><path fill="#595959" d="m298.4809 293.893l0 -10.8125l-1.875 0l0 -1.640625l1.875 0l0 -1.3125q0 -1.265625 0.21875 -1.875q0.296875 -0.8125 1.0625 -1.3125q0.78125 -0.515625 2.15625 -0.515625q0.890625 0 1.96875 0.203125l-0.3125 1.84375q-0.65625 -0.125 -1.25 -0.125q-0.953125 0 -1.359375 0.421875q-0.390625 0.40625 -0.390625 1.53125l0 1.140625l2.421875 0l0 1.640625l-2.421875 0l0 10.8125l-2.09375 0z" fill-rule="nonzero"/><path fill="#000000" fill-opacity="0.0" d="m763.8373 261.85303l0 52.629913" fill-rule="evenodd"/><path stroke="#4285f4" stroke-width="1.0" stroke-linejoin="round" stroke-linecap="butt" d="m763.8373 261.85303l0 46.629913" fill-rule="evenodd"/><path fill="#4285f4" stroke="#4285f4" stroke-width="1.0" stroke-linecap="butt" d="m762.18555 308.48294l1.6517334 4.538086l1.6517334 -4.538086z" fill-rule="evenodd"/><path fill="#000000" fill-opacity="0.0" d="m681.6457 235.18636l41.66925 0" fill-rule="evenodd"/><path stroke="#ffab40" stroke-width="1.0" stroke-linejoin="round" stroke-linecap="butt" d="m681.6457 235.18636l35.66925 0" fill-rule="evenodd"/><path fill="#ffab40" stroke="#ffab40" stroke-width="1.0" stroke-linecap="butt" d="m717.31494 236.83809l4.538147 -1.6517334l-4.538147 -1.6517334z" fill-rule="evenodd"/><path fill="#000000" fill-opacity="0.0" d="m683.4252 235.18636l1.6693115 103.33858" fill-rule="evenodd"/><path stroke="#4285f4" stroke-width="1.0" stroke-linejoin="round" stroke-linecap="butt" d="m683.4252 235.18636l1.5723877 97.33937" fill-rule="evenodd"/><path fill="#4285f4" stroke="#4285f4" stroke-width="1.0" stroke-linecap="butt" d="m683.34607 332.5524l1.7247925 4.5108337l1.5782471 -4.5641785z" fill-rule="evenodd"/><path fill="#000000" fill-opacity="0.0" d="m621.3517 235.18636l0 103.33858" fill-rule="evenodd"/><path stroke="#4285f4" stroke-width="1.0" stroke-linejoin="round" stroke-linecap="butt" d="m621.3517 235.18636l0 97.33858" fill-rule="evenodd"/><path fill="#4285f4" stroke="#4285f4" stroke-width="1.0" stroke-linecap="butt" d="m619.69995 332.52493l1.6517334 4.538086l1.6517334 -4.538086z" fill-rule="evenodd"/><path fill="#000000" fill-opacity="0.0" d="m429.25986 236.01837l105.82675 0" fill-rule="evenodd"/><path stroke="#ffab40" stroke-width="1.0" stroke-linejoin="round" stroke-linecap="butt" d="m429.25986 236.01837l99.82675 0" fill-rule="evenodd"/><path fill="#ffab40" stroke="#ffab40" stroke-width="1.0" stroke-linecap="butt" d="m529.0866 237.6701l4.538086 -1.6517334l-4.538086 -1.6517334z" fill-rule="evenodd"/><path fill="#000000" fill-opacity="0.0" d="m431.75854 235.18636l0 101.6693" fill-rule="evenodd"/><path stroke="#4285f4" stroke-width="1.0" stroke-linejoin="round" stroke-linecap="butt" d="m431.75854 235.18636l0 95.6693" fill-rule="evenodd"/><path fill="#4285f4" stroke="#4285f4" stroke-width="1.0" stroke-linecap="butt" d="m430.1068 330.85565l1.6517334 4.538086l1.6517029 -4.538086z" fill-rule="evenodd"/><path fill="#000000" fill-opacity="0.0" d="m357.38715 235.18636l0 103.33858" fill-rule="evenodd"/><path stroke="#4285f4" stroke-width="1.0" stroke-linejoin="round" stroke-linecap="butt" d="m357.38715 235.18636l0 97.33858" fill-rule="evenodd"/><path fill="#4285f4" stroke="#4285f4" stroke-width="1.0" stroke-linecap="butt" d="m355.7354 332.52493l1.6517334 4.538086l1.6517334 -4.538086z" fill-rule="evenodd"/><path fill="#000000" fill-opacity="0.0" d="m155.92651 269.3517l0.81889343 30.834625" fill-rule="evenodd"/><path stroke="#4285f4" stroke-width="1.0" stroke-linejoin="round" stroke-linecap="butt" d="m155.92651 269.3517l0.6595917 24.836761" fill-rule="evenodd"/><path fill="#4285f4" stroke="#4285f4" stroke-width="1.0" stroke-linecap="butt" d="m154.93497 294.23233l1.7716217 4.4926453l1.5306854 -4.580353z" fill-rule="evenodd"/><path fill="#000000" fill-opacity="0.0" d="m155.09186 268.51968l107.49606 0" fill-rule="evenodd"/><path stroke="#ffab40" stroke-width="1.0" stroke-linejoin="round" stroke-linecap="butt" d="m155.09186 268.51968l101.49606 0" fill-rule="evenodd"/><path fill="#ffab40" stroke="#ffab40" stroke-width="1.0" stroke-linecap="butt" d="m256.58792 270.17142l4.5381165 -1.6517334l-4.5381165 -1.6517334z" fill-rule="evenodd"/><path fill="#000000" fill-opacity="0.0" d="m60.503937 276.42783l0 19.181091" fill-rule="evenodd"/><path stroke="#4285f4" stroke-width="1.0" stroke-linejoin="round" stroke-linecap="butt" d="m60.503937 276.42783l0 13.181091" fill-rule="evenodd"/><path fill="#4285f4" stroke="#4285f4" stroke-width="1.0" stroke-linecap="butt" d="m58.852203 289.60892l1.6517334 4.5381165l1.6517334 -4.5381165z" fill-rule="evenodd"/><path fill="#000000" fill-opacity="0.0" d="m86.75853 123.514435l0 19.181107" fill-rule="evenodd"/><path stroke="#4285f4" stroke-width="1.0" stroke-linejoin="round" stroke-linecap="butt" d="m86.75853 123.514435l0 13.181107" fill-rule="evenodd"/><path fill="#4285f4" stroke="#4285f4" stroke-width="1.0" stroke-linecap="butt" d="m85.1068 136.69554l1.6517334 4.538101l1.6517334 -4.538101z" fill-rule="evenodd"/><path fill="#000000" fill-opacity="0.0" d="m86.75853 101.85302l160.8189 0l0 36.661415l-160.8189 0z" fill-rule="evenodd"/><path fill="#595959" d="m97.930405 123.846146l0 -2.40625l2.40625 0l0 2.40625l-2.40625 0zm0 10.046875l0 -2.40625l2.40625 0l0 2.40625l-2.40625 0zm11.9609375 -6.21875q0 -3.46875 1.921875 -5.125q1.609375 -1.390625 3.921875 -1.390625q2.5625 0 4.1875 1.6875q1.625 1.6875 1.625 4.640625q0 2.40625 -0.71875 3.78125q-0.71875 1.375 -2.09375 2.140625q-1.375 0.765625 -3.0 0.765625q-2.625 0 -4.234375 -1.671875q-1.609375 -1.6875 -1.609375 -4.828125zm2.171875 0q0 2.390625 1.03125 3.578125q1.046875 1.1875 2.640625 1.1875q1.5625 0 2.609375 -1.1875q1.046875 -1.203125 1.046875 -3.65625q0 -2.3125 -1.0625 -3.5q-1.046875 -1.1875 -2.59375 -1.1875q-1.59375 0 -2.640625 1.1875q-1.03125 1.1875 -1.03125 3.578125zm20.113281 6.21875l0 -1.828125q-1.453125 2.109375 -3.9375 2.109375q-1.109375 0 -2.0625 -0.421875q-0.953125 -0.421875 -1.421875 -1.0625q-0.453125 -0.640625 -0.640625 -1.5625q-0.140625 -0.625 -0.140625 -1.96875l0 -7.71875l2.109375 0l0 6.90625q0 1.65625 0.140625 2.234375q0.1875 0.828125 0.828125 1.3125q0.65625 0.46875 1.609375 0.46875q0.9375 0 1.765625 -0.484375q0.84375 -0.5 1.1875 -1.328125q0.34375 -0.84375 0.34375 -2.4375l0 -6.671875l2.109375 0l0 12.453125l-1.890625 0zm9.800781 -1.890625l0.3125 1.859375q-0.890625 0.203125 -1.59375 0.203125q-1.15625 0 -1.796875 -0.359375q-0.625 -0.375 -0.890625 -0.96875q-0.25 -0.59375 -0.25 -2.484375l0 -7.171875l-1.546875 0l0 -1.640625l1.546875 0l0 -3.078125l2.09375 -1.265625l0 4.34375l2.125 0l0 1.640625l-2.125 0l0 7.28125q0 0.90625 0.109375 1.171875q0.125 0.25 0.375 0.40625q0.25 0.140625 0.71875 0.140625q0.34375 0 0.921875 -0.078125zm2.0585938 6.65625l0 -17.21875l1.921875 0l0 1.625q0.6875 -0.953125 1.53125 -1.421875q0.859375 -0.484375 2.078125 -0.484375q1.59375 0 2.8125 0.828125q1.21875 0.8125 1.84375 2.3125q0.625 1.5 0.625 3.28125q0 1.90625 -0.6875 3.4375q-0.6875 1.53125 -2.0 2.34375q-1.296875 0.8125 -2.734375 0.8125q-1.0625 0 -1.90625 -0.4375q-0.828125 -0.453125 -1.375 -1.140625l0 6.0625l-2.109375 0zm1.921875 -10.921875q0 2.40625 0.96875 3.5625q0.96875 1.140625 2.359375 1.140625q1.40625 0 2.40625 -1.1875q1.0 -1.1875 1.0 -3.6875q0 -2.375 -0.984375 -3.5625q-0.96875 -1.1875 -2.328125 -1.1875q-1.359375 0 -2.390625 1.265625q-1.03125 1.25 -1.03125 3.65625zm19.582031 6.15625l0 -1.828125q-1.453125 2.109375 -3.9375 2.109375q-1.109375 0 -2.0625 -0.421875q-0.953125 -0.421875 -1.421875 -1.0625q-0.453125 -0.640625 -0.640625 -1.5625q-0.140625 -0.625 -0.140625 -1.96875l0 -7.71875l2.109375 0l0 6.90625q0 1.65625 0.140625 2.234375q0.1875 0.828125 0.828125 1.3125q0.65625 0.46875 1.609375 0.46875q0.9375 0 1.765625 -0.484375q0.84375 -0.5 1.1875 -1.328125q0.34375 -0.84375 0.34375 -2.4375l0 -6.671875l2.109375 0l0 12.453125l-1.890625 0zm9.800781 -1.890625l0.3125 1.859375q-0.890625 0.203125 -1.59375 0.203125q-1.15625 0 -1.796875 -0.359375q-0.625 -0.375 -0.890625 -0.96875q-0.25 -0.59375 -0.25 -2.484375l0 -7.171875l-1.546875 0l0 -1.640625l1.546875 0l0 -3.078125l2.09375 -1.265625l0 4.34375l2.125 0l0 1.640625l-2.125 0l0 7.28125q0 0.90625 0.109375 1.171875q0.125 0.25 0.375 0.40625q0.25 0.140625 0.71875 0.140625q0.34375 0 0.921875 -0.078125zm16.851562 0.359375q-1.171875 0.984375 -2.265625 1.40625q-1.078125 0.40625 -2.3125 0.40625q-2.046875 0 -3.15625 -1.0q-1.09375 -1.0 -1.09375 -2.5625q0 -0.921875 0.40625 -1.671875q0.421875 -0.75 1.09375 -1.203125q0.671875 -0.46875 1.515625 -0.703125q0.625 -0.15625 1.875 -0.3125q2.5625 -0.3125 3.765625 -0.734375q0.015625 -0.421875 0.015625 -0.546875q0 -1.28125 -0.609375 -1.8125q-0.796875 -0.71875 -2.390625 -0.71875q-1.5 0 -2.203125 0.53125q-0.703125 0.515625 -1.046875 1.84375l-2.0625 -0.28125q0.28125 -1.328125 0.921875 -2.140625q0.640625 -0.8125 1.859375 -1.25q1.21875 -0.453125 2.828125 -0.453125q1.59375 0 2.59375 0.375q1.0 0.375 1.46875 0.953125q0.46875 0.5625 0.65625 1.4375q0.09375 0.53125 0.09375 1.9375l0 2.8125q0 2.9375 0.140625 3.71875q0.140625 0.78125 0.53125 1.5l-2.203125 0q-0.328125 -0.65625 -0.421875 -1.53125zm-0.171875 -4.71875q-1.15625 0.46875 -3.453125 0.796875q-1.296875 0.1875 -1.84375 0.421875q-0.53125 0.234375 -0.828125 0.6875q-0.28125 0.453125 -0.28125 1.0q0 0.84375 0.625 1.40625q0.640625 0.5625 1.875 0.5625q1.21875 0 2.171875 -0.53125q0.953125 -0.53125 1.390625 -1.453125q0.34375 -0.71875 0.34375 -2.109375l0 -0.78125zm3.9882812 6.25l4.546875 -6.46875l-4.203125 -5.984375l2.640625 0l1.90625 2.921875q0.546875 0.828125 0.875 1.390625q0.515625 -0.765625 0.9375 -1.359375l2.109375 -2.953125l2.515625 0l-4.296875 5.859375l4.625 6.59375l-2.59375 0l-2.546875 -3.875l-0.6875 -1.03125l-3.265625 4.90625l-2.5625 0zm21.9375 -4.015625l2.171875 0.28125q-0.515625 1.90625 -1.90625 2.96875q-1.390625 1.046875 -3.5625 1.046875q-2.734375 0 -4.34375 -1.671875q-1.59375 -1.6875 -1.59375 -4.734375q0 -3.140625 1.609375 -4.875q1.625 -1.734375 4.203125 -1.734375q2.5 0 4.078125 1.703125q1.59375 1.703125 1.59375 4.78125q0 0.1875 -0.015625 0.5625l-9.28125 0q0.109375 2.046875 1.15625 3.140625q1.046875 1.09375 2.609375 1.09375q1.15625 0 1.96875 -0.609375q0.828125 -0.609375 1.3125 -1.953125zm-6.9375 -3.40625l6.953125 0q-0.140625 -1.5625 -0.796875 -2.359375q-1.0 -1.21875 -2.609375 -1.21875q-1.453125 0 -2.453125 0.984375q-0.984375 0.96875 -1.09375 2.59375zm10.910156 3.703125l2.09375 -0.328125q0.171875 1.25 0.96875 1.921875q0.8125 0.671875 2.25 0.671875q1.453125 0 2.15625 -0.59375q0.703125 -0.59375 0.703125 -1.390625q0 -0.71875 -0.625 -1.125q-0.421875 -0.28125 -2.15625 -0.71875q-2.3125 -0.578125 -3.21875 -1.0q-0.890625 -0.4375 -1.359375 -1.1875q-0.453125 -0.765625 -0.453125 -1.671875q0 -0.828125 0.375 -1.53125q0.390625 -0.71875 1.046875 -1.1875q0.484375 -0.359375 1.328125 -0.609375q0.859375 -0.265625 1.828125 -0.265625q1.46875 0 2.578125 0.421875q1.109375 0.421875 1.625 1.15625q0.53125 0.71875 0.734375 1.921875l-2.0625 0.28125q-0.140625 -0.96875 -0.8125 -1.5q-0.671875 -0.546875 -1.90625 -0.546875q-1.453125 0 -2.078125 0.484375q-0.625 0.484375 -0.625 1.125q0 0.40625 0.265625 0.734375q0.25 0.34375 0.8125 0.5625q0.3125 0.125 1.859375 0.546875q2.234375 0.59375 3.109375 0.984375q0.890625 0.375 1.390625 1.109375q0.515625 0.71875 0.515625 1.796875q0 1.046875 -0.625 1.984375q-0.609375 0.9375 -1.765625 1.453125q-1.15625 0.5 -2.625 0.5q-2.421875 0 -3.703125 -1.0q-1.265625 -1.015625 -1.625 -3.0z" fill-rule="nonzero"/><path fill="#000000" fill-opacity="0.0" d="m265.10236 123.514435l41.66931 0" fill-rule="evenodd"/><path stroke="#ffab40" stroke-width="1.0" stroke-linejoin="round" stroke-linecap="butt" d="m265.10236 123.514435l35.66931 0" fill-rule="evenodd"/><path fill="#ffab40" stroke="#ffab40" stroke-width="1.0" stroke-linecap="butt" d="m300.77167 125.16617l4.538086 -1.6517334l-4.538086 -1.6517334z" fill-rule="evenodd"/><path fill="#000000" fill-opacity="0.0" d="m302.38058 101.85302l149.16534 0l0 27.496056l-149.16534 0z" fill-rule="evenodd"/><path fill="#595959" d="m313.55246 123.846146l0 -2.40625l2.40625 0l0 2.40625l-2.40625 0zm0 10.046875l0 -2.40625l2.40625 0l0 2.40625l-2.40625 0zm12.7578125 -14.75l0 -2.4375l2.109375 0l0 2.4375l-2.109375 0zm0 14.75l0 -12.453125l2.109375 0l0 12.453125l-2.109375 0zm5.3164062 0l0 -12.453125l1.90625 0l0 1.78125q1.375 -2.0625 3.953125 -2.0625q1.125 0 2.0625 0.40625q0.953125 0.40625 1.421875 1.0625q0.46875 0.65625 0.65625 1.5625q0.125 0.578125 0.125 2.046875l0 7.65625l-2.109375 0l0 -7.578125q0 -1.28125 -0.25 -1.921875q-0.25 -0.640625 -0.875 -1.015625q-0.625 -0.390625 -1.46875 -0.390625q-1.34375 0 -2.328125 0.859375q-0.984375 0.859375 -0.984375 3.25l0 6.796875l-2.109375 0zm13.347656 4.765625l0 -17.21875l1.921875 0l0 1.625q0.6875 -0.953125 1.53125 -1.421875q0.859375 -0.484375 2.078125 -0.484375q1.59375 0 2.8125 0.828125q1.21875 0.8125 1.84375 2.3125q0.625 1.5 0.625 3.28125q0 1.90625 -0.6875 3.4375q-0.6875 1.53125 -2.0 2.34375q-1.296875 0.8125 -2.734375 0.8125q-1.0625 0 -1.90625 -0.4375q-0.828125 -0.453125 -1.375 -1.140625l0 6.0625l-2.109375 0zm1.921875 -10.921875q0 2.40625 0.96875 3.5625q0.96875 1.140625 2.359375 1.140625q1.40625 0 2.40625 -1.1875q1.0 -1.1875 1.0 -3.6875q0 -2.375 -0.984375 -3.5625q-0.96875 -1.1875 -2.328125 -1.1875q-1.359375 0 -2.390625 1.265625q-1.03125 1.25 -1.03125 3.65625zm19.582031 6.15625l0 -1.828125q-1.453125 2.109375 -3.9375 2.109375q-1.109375 0 -2.0625 -0.421875q-0.953125 -0.421875 -1.421875 -1.0625q-0.453125 -0.640625 -0.640625 -1.5625q-0.140625 -0.625 -0.140625 -1.96875l0 -7.71875l2.109375 0l0 6.90625q0 1.65625 0.140625 2.234375q0.1875 0.828125 0.828125 1.3125q0.65625 0.46875 1.609375 0.46875q0.9375 0 1.765625 -0.484375q0.84375 -0.5 1.1875 -1.328125q0.34375 -0.84375 0.34375 -2.4375l0 -6.671875l2.109375 0l0 12.453125l-1.890625 0zm9.800781 -1.890625l0.3125 1.859375q-0.890625 0.203125 -1.59375 0.203125q-1.15625 0 -1.796875 -0.359375q-0.625 -0.375 -0.890625 -0.96875q-0.25 -0.59375 -0.25 -2.484375l0 -7.171875l-1.546875 0l0 -1.640625l1.546875 0l0 -3.078125l2.09375 -1.265625l0 4.34375l2.125 0l0 1.640625l-2.125 0l0 7.28125q0 0.90625 0.109375 1.171875q0.125 0.25 0.375 0.40625q0.25 0.140625 0.71875 0.140625q0.34375 0 0.921875 -0.078125zm16.851562 0.359375q-1.171875 0.984375 -2.265625 1.40625q-1.078125 0.40625 -2.3125 0.40625q-2.046875 0 -3.15625 -1.0q-1.09375 -1.0 -1.09375 -2.5625q0 -0.921875 0.40625 -1.671875q0.421875 -0.75 1.09375 -1.203125q0.671875 -0.46875 1.515625 -0.703125q0.625 -0.15625 1.875 -0.3125q2.5625 -0.3125 3.765625 -0.734375q0.015625 -0.421875 0.015625 -0.546875q0 -1.28125 -0.609375 -1.8125q-0.796875 -0.71875 -2.390625 -0.71875q-1.5 0 -2.203125 0.53125q-0.703125 0.515625 -1.046875 1.84375l-2.0625 -0.28125q0.28125 -1.328125 0.921875 -2.140625q0.640625 -0.8125 1.859375 -1.25q1.21875 -0.453125 2.828125 -0.453125q1.59375 0 2.59375 0.375q1.0 0.375 1.46875 0.953125q0.46875 0.5625 0.65625 1.4375q0.09375 0.53125 0.09375 1.9375l0 2.8125q0 2.9375 0.140625 3.71875q0.140625 0.78125 0.53125 1.5l-2.203125 0q-0.328125 -0.65625 -0.421875 -1.53125zm-0.171875 -4.71875q-1.15625 0.46875 -3.453125 0.796875q-1.296875 0.1875 -1.84375 0.421875q-0.53125 0.234375 -0.828125 0.6875q-0.28125 0.453125 -0.28125 1.0q0 0.84375 0.625 1.40625q0.640625 0.5625 1.875 0.5625q1.21875 0 2.171875 -0.53125q0.953125 -0.53125 1.390625 -1.453125q0.34375 -0.71875 0.34375 -2.109375l0 -0.78125zm3.9882812 6.25l4.546875 -6.46875l-4.203125 -5.984375l2.640625 0l1.90625 2.921875q0.546875 0.828125 0.875 1.390625q0.515625 -0.765625 0.9375 -1.359375l2.109375 -2.953125l2.515625 0l-4.296875 5.859375l4.625 6.59375l-2.59375 0l-2.546875 -3.875l-0.6875 -1.03125l-3.265625 4.90625l-2.5625 0zm21.9375 -4.015625l2.171875 0.28125q-0.515625 1.90625 -1.90625 2.96875q-1.390625 1.046875 -3.5625 1.046875q-2.734375 0 -4.34375 -1.671875q-1.59375 -1.6875 -1.59375 -4.734375q0 -3.140625 1.609375 -4.875q1.625 -1.734375 4.203125 -1.734375q2.5 0 4.078125 1.703125q1.59375 1.703125 1.59375 4.78125q0 0.1875 -0.015625 0.5625l-9.28125 0q0.109375 2.046875 1.15625 3.140625q1.046875 1.09375 2.609375 1.09375q1.15625 0 1.96875 -0.609375q0.828125 -0.609375 1.3125 -1.953125zm-6.9375 -3.40625l6.953125 0q-0.140625 -1.5625 -0.796875 -2.359375q-1.0 -1.21875 -2.609375 -1.21875q-1.453125 0 -2.453125 0.984375q-0.984375 0.96875 -1.09375 2.59375zm10.910156 3.703125l2.09375 -0.328125q0.171875 1.25 0.96875 1.921875q0.8125 0.671875 2.25 0.671875q1.453125 0 2.15625 -0.59375q0.703125 -0.59375 0.703125 -1.390625q0 -0.71875 -0.625 -1.125q-0.421875 -0.28125 -2.15625 -0.71875q-2.3125 -0.578125 -3.21875 -1.0q-0.890625 -0.4375 -1.359375 -1.1875q-0.453125 -0.765625 -0.453125 -1.671875q0 -0.828125 0.375 -1.53125q0.390625 -0.71875 1.046875 -1.1875q0.484375 -0.359375 1.328125 -0.609375q0.859375 -0.265625 1.828125 -0.265625q1.46875 0 2.578125 0.421875q1.109375 0.421875 1.625 1.15625q0.53125 0.71875 0.734375 1.921875l-2.0625 0.28125q-0.140625 -0.96875 -0.8125 -1.5q-0.671875 -0.546875 -1.90625 -0.546875q-1.453125 0 -2.078125 0.484375q-0.625 0.484375 -0.625 1.125q0 0.40625 0.265625 0.734375q0.25 0.34375 0.8125 0.5625q0.3125 0.125 1.859375 0.546875q2.234375 0.59375 3.109375 0.984375q0.890625 0.375 1.390625 1.109375q0.515625 0.71875 0.515625 1.796875q0 1.046875 -0.625 1.984375q-0.609375 0.9375 -1.765625 1.453125q-1.15625 0.5 -2.625 0.5q-2.421875 0 -3.703125 -1.0q-1.265625 -1.015625 -1.625 -3.0z" fill-rule="nonzero"/><path fill="#000000" fill-opacity="0.0" d="m745.09186 224.3517l41.66931 0l0 36.661423l-41.66931 0z" fill-rule="evenodd"/><path fill="#595959" d="m761.96686 251.07921l4.515625 4.328125q0.4375 0 0.546875 0.046875q0.125 0.03125 0.21875 0.171875q0.09375 0.125 0.09375 0.265625q0 0.21873474 -0.15625 0.35935974q-0.15625 0.140625 -0.515625 0.140625l-3.171875 0q-0.359375 0 -0.515625 -0.140625q-0.140625 -0.140625 -0.140625 -0.35935974q0 -0.21875 0.140625 -0.34375q0.15625 -0.140625 0.515625 -0.140625l1.640625 0l-3.84375 -3.671875l-3.796875 3.671875l1.640625 0q0.34375 0 0.5 0.140625q0.15625 0.125 0.15625 0.34375q0 0.21873474 -0.15625 0.35935974q-0.15625 0.140625 -0.5 0.140625l-3.203125 0q-0.359375 0 -0.515625 -0.140625q-0.140625 -0.140625 -0.140625 -0.35935974q0 -0.140625 0.078125 -0.265625q0.09375 -0.140625 0.203125 -0.171875q0.109375 -0.046875 0.5625 -0.046875l4.515625 -4.328125l-4.015625 -3.84375q-0.421875 0 -0.53125 -0.046875q-0.109375 -0.046875 -0.203125 -0.171875q-0.078125 -0.125 -0.078125 -0.28125q0 -0.21875 0.140625 -0.359375q0.15625 -0.140625 0.515625 -0.140625l2.6875 0q0.359375 0 0.5 0.140625q0.15625 0.140625 0.15625 0.375q0 0.203125 -0.15625 0.34375q-0.140625 0.140625 -0.5 0.140625l-1.171875 0l3.3125 3.203125l3.34375 -3.203125l-1.171875 0q-0.34375 0 -0.515625 -0.140625q-0.15625 -0.140625 -0.15625 -0.359375q0 -0.21875 0.15625 -0.359375q0.15625 -0.140625 0.515625 -0.140625l2.6875 0q0.34375 0 0.5 0.140625q0.15625 0.140625 0.15625 0.375q0 0.140625 -0.09375 0.265625q-0.078125 0.125 -0.203125 0.171875q-0.109375 0.046875 -0.53125 0.046875l-4.015625 3.84375z" fill-rule="nonzero"/><path fill="#000000" fill-opacity="0.0" d="m676.75854 192.68504l58.33069 0l0 43.338577l-58.33069 0z" fill-rule="evenodd"/><path fill="#595959" d="m696.3523 224.72504l-1.21875 0.015625l-2.171875 -6.328125l-2.15625 6.328125l-1.21875 -0.015625l-2.03125 -9.15625l-0.484375 0q-0.34375 0 -0.5 -0.140625q-0.15625 -0.140625 -0.15625 -0.359375q0 -0.21875 0.15625 -0.359375q0.15625 -0.140625 0.5 -0.140625l2.703125 0q0.359375 0 0.5 0.140625q0.15625 0.140625 0.15625 0.375q0 0.203125 -0.15625 0.34375q-0.140625 0.140625 -0.5 0.140625l-1.25 0l1.75 7.8125l2.09375 -6.234375l1.171875 0l2.15625 6.234375l1.671875 -7.8125l-1.234375 0q-0.359375 0 -0.515625 -0.140625q-0.15625 -0.140625 -0.15625 -0.359375q0 -0.21875 0.15625 -0.359375q0.15625 -0.140625 0.515625 -0.140625l2.6875 0q0.375 0 0.515625 0.140625q0.15625 0.140625 0.15625 0.375q0 0.203125 -0.15625 0.34375q-0.140625 0.140625 -0.515625 0.140625l-0.46875 0l-2.0 9.15625zm11.496094 -14.90625l0 13.921875l3.375 0q0.359375 0 0.5 0.140625q0.15625 0.125 0.15625 0.34375q0 0.21875 -0.15625 0.359375q-0.140625 0.140625 -0.5 0.140625l-7.734375 0q-0.34375 0 -0.5 -0.140625q-0.15625 -0.140625 -0.15625 -0.359375q0 -0.21875 0.15625 -0.34375q0.15625 -0.140625 0.5 -0.140625l3.375 0l0 -12.5625l-3.203125 1.0q-0.234375 0.078125 -0.34375 0.078125q-0.171875 0 -0.328125 -0.140625q-0.140625 -0.15625 -0.140625 -0.359375q0 -0.171875 0.109375 -0.328125q0.09375 -0.09375 0.390625 -0.1875l4.5 -1.421875z" fill-rule="nonzero"/><path fill="#000000" fill-opacity="0.0" d="m605.0945 196.02362l58.33069 0l0 36.661423l-58.33069 0z" fill-rule="evenodd"/><path fill="#595959" d="m617.5945 213.3605l0 6.515625q1.78125 -2.3125 4.296875 -2.3125q2.15625 0 3.6875 1.5625q1.53125 1.5625 1.53125 3.84375q0 2.296875 -1.546875 3.890625q-1.546875 1.59375 -3.671875 1.59375q-2.578125 0 -4.296875 -2.328125l0 1.9375l-2.3125 0q-0.359375 0 -0.515625 -0.140625q-0.140625 -0.140625 -0.140625 -0.359375q0 -0.21875 0.140625 -0.34375q0.15625 -0.140625 0.515625 -0.140625l1.328125 0l0 -12.734375l-1.328125 0q-0.359375 0 -0.515625 -0.140625q-0.140625 -0.140625 -0.140625 -0.359375q0 -0.203125 0.140625 -0.34375q0.15625 -0.140625 0.515625 -0.140625l2.3125 0zm8.53125 9.65625q0 -1.875 -1.28125 -3.15625q-1.265625 -1.296875 -2.984375 -1.296875q-1.703125 0 -2.984375 1.296875q-1.28125 1.28125 -1.28125 3.15625q0 1.859375 1.28125 3.15625q1.28125 1.296875 2.984375 1.296875q1.71875 0 2.984375 -1.296875q1.28125 -1.296875 1.28125 -3.15625zm10.058594 -9.859375l0 13.921875l3.375 0q0.359375 0 0.5 0.140625q0.15625 0.125 0.15625 0.34375q0 0.21875 -0.15625 0.359375q-0.140625 0.140625 -0.5 0.140625l-7.734375 0q-0.34375 0 -0.5 -0.140625q-0.15625 -0.140625 -0.15625 -0.359375q0 -0.21875 0.15625 -0.34375q0.15625 -0.140625 0.5 -0.140625l3.375 0l0 -12.5625l-3.203125 1.0q-0.234375 0.078125 -0.34375 0.078125q-0.171875 0 -0.328125 -0.140625q-0.140625 -0.15625 -0.140625 -0.359375q0 -0.171875 0.109375 -0.328125q0.09375 -0.09375 0.390625 -0.1875l4.5 -1.421875z" fill-rule="nonzero"/><path fill="#000000" fill-opacity="0.0" d="m435.09186 200.18636l72.81891 0l0 36.661407l-72.81891 0z" fill-rule="evenodd"/><path fill="#595959" d="m454.6856 232.22635l-1.21875 0.015625l-2.171875 -6.328125l-2.15625 6.328125l-1.21875 -0.015625l-2.03125 -9.15625l-0.484375 0q-0.34375 0 -0.5 -0.140625q-0.15625 -0.140625 -0.15625 -0.359375q0 -0.21875 0.15625 -0.359375q0.15625 -0.140625 0.5 -0.140625l2.703125 0q0.359375 0 0.5 0.140625q0.15625 0.140625 0.15625 0.375q0 0.203125 -0.15625 0.34375q-0.140625 0.140625 -0.5 0.140625l-1.25 0l1.75 7.8125l2.09375 -6.234375l1.171875 0l2.15625 6.234375l1.671875 -7.8125l-1.234375 0q-0.359375 0 -0.515625 -0.140625q-0.15625 -0.140625 -0.15625 -0.359375q0 -0.21875 0.15625 -0.359375q0.15625 -0.140625 0.515625 -0.140625l2.6875 0q0.375 0 0.515625 0.140625q0.15625 0.140625 0.15625 0.375q0 0.203125 -0.15625 0.34375q-0.140625 0.140625 -0.515625 0.140625l-0.46875 0l-2.0 9.15625zm6.7773438 -0.984375l7.5625 0l0 -0.390625q0 -0.34375 0.140625 -0.5q0.140625 -0.15625 0.359375 -0.15625q0.203125 0 0.34375 0.15625q0.140625 0.15625 0.140625 0.5l0 1.375l-9.515625 0l0 -1.453125q3.0 -2.703125 5.84375 -5.484375q1.328125 -1.296875 1.8125 -1.90625q0.5 -0.609375 0.671875 -1.078125q0.1875 -0.46875 0.1875 -0.9375q0 -1.265625 -1.03125 -2.234375q-1.015625 -0.96875 -2.453125 -0.96875q-1.28125 0 -2.28125 0.734375q-1.0 0.734375 -1.296875 1.828125q-0.0625 0.28125 -0.171875 0.359375q-0.140625 0.125 -0.328125 0.125q-0.203125 0 -0.34375 -0.125q-0.125 -0.140625 -0.125 -0.328125q0 -0.5625 0.609375 -1.515625q0.625 -0.96875 1.703125 -1.515625q1.09375 -0.5625 2.21875 -0.5625q1.84375 0 3.171875 1.28125q1.328125 1.28125 1.328125 2.890625q0 0.6875 -0.234375 1.25q-0.21875 0.5625 -0.75 1.25q-0.53125 0.671875 -1.921875 2.03125q-3.46875 3.421875 -5.640625 5.296875l0 0.078125z" fill-rule="nonzero"/><path fill="#000000" fill-opacity="0.0" d="m339.25986 198.51968l67.49606 0l0 36.661423l-67.49606 0z" fill-rule="evenodd"/><path fill="#595959" d="m351.75986 215.85657l0 6.515625q1.78125 -2.3125 4.296875 -2.3125q2.15625 0 3.6875 1.5625q1.53125 1.5625 1.53125 3.84375q0 2.296875 -1.546875 3.890625q-1.546875 1.59375 -3.671875 1.59375q-2.578125 0 -4.296875 -2.328125l0 1.9375l-2.3125 0q-0.359375 0 -0.515625 -0.140625q-0.140625 -0.140625 -0.140625 -0.359375q0 -0.21875 0.140625 -0.34375q0.15625 -0.140625 0.515625 -0.140625l1.328125 0l0 -12.734375l-1.328125 0q-0.359375 0 -0.515625 -0.140625q-0.140625 -0.140625 -0.140625 -0.359375q0 -0.203125 0.140625 -0.34375q0.15625 -0.140625 0.515625 -0.140625l2.3125 0zm8.53125 9.65625q0 -1.875 -1.28125 -3.15625q-1.265625 -1.296875 -2.984375 -1.296875q-1.703125 0 -2.984375 1.296875q-1.28125 1.28125 -1.28125 3.15625q0 1.859375 1.28125 3.15625q1.28125 1.296875 2.984375 1.296875q1.71875 0 2.984375 -1.296875q1.28125 -1.296875 1.28125 -3.15625zm5.3398438 4.0625l7.5625 0l0 -0.390625q0 -0.34375 0.140625 -0.5q0.140625 -0.15625 0.359375 -0.15625q0.203125 0 0.34375 0.15625q0.140625 0.15625 0.140625 0.5l0 1.375l-9.515625 0l0 -1.453125q3.0 -2.703125 5.84375 -5.484375q1.328125 -1.296875 1.8125 -1.90625q0.5 -0.609375 0.671875 -1.078125q0.1875 -0.46875 0.1875 -0.9375q0 -1.265625 -1.03125 -2.234375q-1.015625 -0.96875 -2.453125 -0.96875q-1.28125 0 -2.28125 0.734375q-1.0 0.734375 -1.296875 1.828125q-0.0625 0.28125 -0.171875 0.359375q-0.140625 0.125 -0.328125 0.125q-0.203125 0 -0.34375 -0.125q-0.125 -0.140625 -0.125 -0.328125q0 -0.5625 0.609375 -1.515625q0.625 -0.96875 1.703125 -1.515625q1.09375 -0.5625 2.21875 -0.5625q1.84375 0 3.171875 1.28125q1.328125 1.28125 1.328125 2.890625q0 0.6875 -0.234375 1.25q-0.21875 0.5625 -0.75 1.25q-0.53125 0.671875 -1.921875 2.03125q-3.46875 3.421875 -5.640625 5.296875l0 0.078125z" fill-rule="nonzero"/><path fill="#000000" fill-opacity="0.0" d="m155.09186 227.68504l64.157486 0l0 30.83464l-64.157486 0z" fill-rule="evenodd"/><path fill="#595959" d="m174.68561 259.72504l-1.21875 0.015625l-2.171875 -6.328125l-2.15625 6.328125l-1.21875 -0.015625l-2.03125 -9.15625l-0.484375 0q-0.34375 0 -0.5 -0.140625q-0.15625 -0.140625 -0.15625 -0.359375q0 -0.21875 0.15625 -0.359375q0.15625 -0.140625 0.5 -0.140625l2.703125 0q0.359375 0 0.5 0.140625q0.15625 0.140625 0.15625 0.375q0 0.203125 -0.15625 0.34375q-0.140625 0.140625 -0.5 0.140625l-1.25 0l1.75 7.8125l2.09375 -6.234375l1.171875 0l2.15625 6.234375l1.671875 -7.8125l-1.234375 0q-0.359375 0 -0.515625 -0.140625q-0.15625 -0.140625 -0.15625 -0.359375q0 -0.21875 0.15625 -0.359375q0.15625 -0.140625 0.515625 -0.140625l2.6875 0q0.375 0 0.515625 0.140625q0.15625 0.140625 0.15625 0.375q0 0.203125 -0.15625 0.34375q-0.140625 0.140625 -0.515625 0.140625l-0.46875 0l-2.0 9.15625zm13.027344 -8.0q1.359375 0.609375 2.078125 1.671875q0.71875 1.046875 0.71875 2.203125q0 1.765625 -1.4375 3.125q-1.4375 1.359375 -3.59375 1.359375q-1.265625 0 -2.625 -0.546875q-1.359375 -0.546875 -1.890625 -1.109375q-0.1875 -0.1875 -0.1875 -0.390625q0 -0.1875 0.140625 -0.328125q0.140625 -0.140625 0.328125 -0.140625q0.1875 0 0.421875 0.171875q1.8125 1.34375 3.84375 1.34375q1.703125 0 2.859375 -1.0625q1.15625 -1.078125 1.15625 -2.390625q0 -0.875 -0.578125 -1.71875q-0.5625 -0.84375 -1.625 -1.328125q-1.0625 -0.484375 -2.15625 -0.484375q-0.359375 0 -0.515625 -0.140625q-0.140625 -0.140625 -0.140625 -0.359375q0 -0.203125 0.140625 -0.34375q0.15625 -0.140625 0.4375 -0.140625l0.84375 0q1.328125 0 2.1875 -0.796875q0.859375 -0.8125 0.859375 -1.875q0 -1.109375 -0.90625 -1.953125q-0.890625 -0.84375 -2.34375 -0.84375q-1.015625 0 -1.875 0.359375q-0.859375 0.34375 -1.375 0.953125q-0.1875 0.234375 -0.296875 0.296875q-0.09375 0.046875 -0.21875 0.046875q-0.203125 0 -0.34375 -0.125q-0.140625 -0.140625 -0.140625 -0.328125q0 -0.46875 1.03125 -1.1875q1.40625 -1.0 3.21875 -1.0q1.859375 0 3.046875 1.125q1.203125 1.109375 1.203125 2.65625q0 0.984375 -0.578125 1.875q-0.5625 0.875 -1.6875 1.40625z" fill-rule="nonzero"/><path fill="#000000" fill-opacity="0.0" d="m38.425198 238.51968l58.330708 0l0 40.91339l-58.330708 0z" fill-rule="evenodd"/><path fill="#595959" d="m50.925198 255.85657l0 6.515625q1.78125 -2.3125 4.296875 -2.3125q2.15625 0 3.6875 1.5625q1.53125 1.5625 1.53125 3.84375q0 2.296875 -1.546875 3.890625q-1.546875 1.59375 -3.671875 1.59375q-2.578125 0 -4.296875 -2.328125l0 1.9375l-2.3125 0q-0.359375 0 -0.515625 -0.140625q-0.140625 -0.140625 -0.140625 -0.359375q0 -0.21875 0.140625 -0.34375q0.15625 -0.140625 0.515625 -0.140625l1.328125 0l0 -12.734375l-1.328125 0q-0.359375 0 -0.515625 -0.140625q-0.140625 -0.140625 -0.140625 -0.359375q0 -0.203125 0.140625 -0.34375q0.15625 -0.140625 0.515625 -0.140625l2.3125 0zm8.53125 9.65625q0 -1.875 -1.28125 -3.15625q-1.265625 -1.296875 -2.984375 -1.296875q-1.703125 0 -2.984375 1.296875q-1.28125 1.28125 -1.28125 3.15625q0 1.859375 1.28125 3.15625q1.28125 1.296875 2.984375 1.296875q1.71875 0 2.984375 -1.296875q1.28125 -1.296875 1.28125 -3.15625zm11.58984 -2.953125q1.359375 0.609375 2.078125 1.671875q0.71875 1.046875 0.71875 2.203125q0 1.765625 -1.4375 3.125q-1.4375 1.359375 -3.59375 1.359375q-1.265625 0 -2.625 -0.546875q-1.359375 -0.546875 -1.890625 -1.109375q-0.1875 -0.1875 -0.1875 -0.390625q0 -0.1875 0.140625 -0.328125q0.140625 -0.140625 0.328125 -0.140625q0.1875 0 0.421875 0.171875q1.8125 1.34375 3.84375 1.34375q1.703125 0 2.859375 -1.0625q1.15625 -1.078125 1.15625 -2.390625q0 -0.875 -0.578125 -1.71875q-0.5625 -0.84375 -1.625 -1.328125q-1.0625 -0.484375 -2.15625 -0.484375q-0.359375 0 -0.515625 -0.140625q-0.140625 -0.140625 -0.140625 -0.359375q0 -0.203125 0.140625 -0.34375q0.15625 -0.140625 0.4375 -0.140625l0.84375 0q1.328125 0 2.1875 -0.796875q0.859375 -0.8125 0.859375 -1.875q0 -1.109375 -0.90625 -1.953125q-0.890625 -0.84375 -2.34375 -0.84375q-1.015625 0 -1.875 0.359375q-0.859375 0.34375 -1.375 0.953125q-0.1875 0.234375 -0.296875 0.296875q-0.09375 0.046875 -0.21875 0.046875q-0.203125 0 -0.34375 -0.125q-0.140625 -0.140625 -0.140625 -0.328125q0 -0.46875 1.03125 -1.1875q1.40625 -1.0 3.21875 -1.0q1.859375 0 3.046875 1.125q1.203125 1.109375 1.203125 2.65625q0 0.984375 -0.578125 1.875q-0.5625 0.875 -1.6875 1.40625z" fill-rule="nonzero"/><path fill="#000000" fill-opacity="0.0" d="m263.61023 232.68504l78.58267 0l0 43.338577l-78.58267 0z" fill-rule="evenodd"/><path fill="#595959" d="m279.70398 258.8813q0 -1.34375 0.34375 -2.84375q0.359375 -1.515625 1.34375 -3.5q1.0 -1.984375 1.46875 -2.390625q0.140625 -0.125 0.296875 -0.125q0.21875 0 0.359375 0.140625q0.140625 0.140625 0.140625 0.328125q0 0.125 -0.078125 0.265625q-1.28125 2.359375 -1.84375 4.28125q-0.546875 1.921875 -0.546875 3.84375q0 1.9375 0.546875 3.859375q0.5625 1.921875 1.84375 4.28125q0.078125 0.140625 0.078125 0.265625q0 0.1875 -0.140625 0.328125q-0.140625 0.15625 -0.359375 0.15625q-0.15625 0 -0.296875 -0.125q-0.4375 -0.40625 -1.421875 -2.34375q-0.984375 -1.921875 -1.359375 -3.40625q-0.375 -1.5 -0.375 -3.015625zm15.042969 -0.1875l0 1.0q0 0.359375 -0.140625 0.515625q-0.140625 0.140625 -0.34375 0.140625q-0.234375 0 -0.375 -0.140625q-0.140625 -0.15625 -0.140625 -0.515625l0 -1.65625q2.578125 -0.9375 3.515625 -1.890625q0.515625 -0.53125 0.515625 -1.328125q0 -1.3125 -0.953125 -2.234375q-0.953125 -0.9375 -2.46875 -0.9375q-0.78125 0 -1.46875 0.171875q-0.6875 0.171875 -1.671875 0.65625l0 1.015625q0 0.34375 -0.140625 0.5q-0.125 0.15625 -0.34375 0.15625q-0.21875 0 -0.359375 -0.15625q-0.140625 -0.15625 -0.140625 -0.5l0 -1.65625q1.828125 -0.8125 2.375 -0.953125q0.90625 -0.21875 1.828125 -0.21875q1.953125 0 3.140625 1.171875q1.1875 1.171875 1.1875 2.96875q0 1.09375 -0.703125 1.953125q-0.703125 0.84375 -3.3125 1.9375zm-1.0 3.9375l0.984375 0q0.515625 0 0.859375 0.359375q0.359375 0.359375 0.359375 0.859375q0 0.515625 -0.375 0.875q-0.359375 0.359375 -0.84375 0.359375l-0.984375 0q-0.515625 0 -0.875 -0.359375q-0.34375 -0.359375 -0.34375 -0.859375q0 -0.53125 0.359375 -0.875q0.359375 -0.359375 0.859375 -0.359375zm19.292969 -13.328125l-7.921875 16.96875q-0.203125 0.4375 -0.515625 0.4375q-0.203125 0 -0.34375 -0.15625q-0.140625 -0.140625 -0.140625 -0.3125q0 -0.140625 0.109375 -0.390625l7.90625 -16.96875q0.140625 -0.265625 0.25 -0.34375q0.125 -0.09375 0.28125 -0.09375q0.203125 0 0.34375 0.15625q0.15625 0.140625 0.15625 0.3125q0 0.125 -0.125 0.390625zm10.261719 9.59375q0 1.34375 -0.359375 2.859375q-0.34375 1.5 -1.34375 3.484375q-0.984375 2.0 -1.4375 2.390625q-0.140625 0.140625 -0.3125 0.140625q-0.203125 0 -0.359375 -0.15625q-0.140625 -0.140625 -0.140625 -0.328125q0 -0.125 0.078125 -0.265625q1.296875 -2.359375 1.84375 -4.28125q0.546875 -1.921875 0.546875 -3.84375q0 -1.9375 -0.546875 -3.859375q-0.546875 -1.921875 -1.84375 -4.28125q-0.078125 -0.140625 -0.078125 -0.265625q0 -0.1875 0.140625 -0.328125q0.15625 -0.140625 0.359375 -0.140625q0.171875 0 0.3125 0.125q0.421875 0.390625 1.40625 2.328125q0.984375 1.9375 1.359375 3.421875q0.375 1.484375 0.375 3.0z" fill-rule="nonzero"/><path fill="#000000" fill-opacity="0.0" d="m538.9265 235.1811l78.5827 0l0 43.338577l-78.5827 0z" fill-rule="evenodd"/><path fill="#595959" d="m555.02026 261.37735q0 -1.34375 0.34375 -2.84375q0.359375 -1.515625 1.34375 -3.5q1.0 -1.984375 1.46875 -2.390625q0.140625 -0.125 0.296875 -0.125q0.21875 0 0.359375 0.140625q0.140625 0.140625 0.140625 0.328125q0 0.125 -0.078125 0.265625q-1.28125 2.359375 -1.84375 4.28125q-0.546875 1.921875 -0.546875 3.84375q0 1.9375 0.546875 3.859375q0.5625 1.921875 1.84375 4.28125q0.078125 0.140625 0.078125 0.265625q0 0.1875 -0.140625 0.328125q-0.140625 0.15625 -0.359375 0.15625q-0.15625 0 -0.296875 -0.125q-0.4375 -0.40625 -1.421875 -2.34375q-0.984375 -1.921875 -1.359375 -3.40625q-0.375 -1.5 -0.375 -3.015625zm15.042969 -0.1875l0 1.0q0 0.359375 -0.140625 0.515625q-0.140625 0.140625 -0.34375 0.140625q-0.234375 0 -0.375 -0.140625q-0.140625 -0.15625 -0.140625 -0.515625l0 -1.65625q2.578125 -0.9375 3.515625 -1.890625q0.515625 -0.53125 0.515625 -1.328125q0 -1.3125 -0.953125 -2.234375q-0.953125 -0.9375 -2.46875 -0.9375q-0.78125 0 -1.46875 0.171875q-0.6875 0.171875 -1.671875 0.65625l0 1.015625q0 0.34375 -0.140625 0.5q-0.125 0.15625 -0.34375 0.15625q-0.21875 0 -0.359375 -0.15625q-0.140625 -0.15625 -0.140625 -0.5l0 -1.65625q1.828125 -0.8125 2.375 -0.953125q0.90625 -0.21875 1.828125 -0.21875q1.953125 0 3.140625 1.171875q1.1875 1.171875 1.1875 2.96875q0 1.09375 -0.703125 1.953125q-0.703125 0.84375 -3.3125 1.9375zm-1.0 3.9375l0.984375 0q0.515625 0 0.859375 0.359375q0.359375 0.359375 0.359375 0.859375q0 0.515625 -0.375 0.875q-0.359375 0.359375 -0.84375 0.359375l-0.984375 0q-0.515625 0 -0.875 -0.359375q-0.34375 -0.359375 -0.34375 -0.859375q0 -0.53125 0.359375 -0.875q0.359375 -0.359375 0.859375 -0.359375zm19.292969 -13.328125l-7.921875 16.96875q-0.203125 0.4375 -0.515625 0.4375q-0.203125 0 -0.34375 -0.15625q-0.140625 -0.140625 -0.140625 -0.3125q0 -0.140625 0.109375 -0.390625l7.90625 -16.96875q0.140625 -0.265625 0.25 -0.34375q0.125 -0.09375 0.28125 -0.09375q0.203125 0 0.34375 0.15625q0.15625 0.140625 0.15625 0.3125q0 0.125 -0.125 0.390625zm10.261719 9.59375q0 1.34375 -0.359375 2.859375q-0.34375 1.5 -1.34375 3.484375q-0.984375 2.0 -1.4375 2.390625q-0.140625 0.140625 -0.3125 0.140625q-0.203125 0 -0.359375 -0.15625q-0.140625 -0.140625 -0.140625 -0.328125q0 -0.125 0.078125 -0.265625q1.296875 -2.359375 1.84375 -4.28125q0.546875 -1.921875 0.546875 -3.84375q0 -1.9375 -0.546875 -3.859375q-0.546875 -1.921875 -1.84375 -4.28125q-0.078125 -0.140625 -0.078125 -0.265625q0 -0.1875 0.140625 -0.328125q0.15625 -0.140625 0.359375 -0.140625q0.171875 0 0.3125 0.125q0.421875 0.390625 1.40625 2.328125q0.984375 1.9375 1.359375 3.421875q0.375 1.484375 0.375 3.0z" fill-rule="nonzero"/></g></svg>